<svg xmlns="http://www.w3.org/2000/svg" xmlns:xlink="http://www.w3.org/1999/xlink" width="250" height="61.063" viewBox="0 0 250 61.063">
  <defs>
    <clipPath id="clip-path">
      <rect id="Rectangle_9" data-name="Rectangle 9" width="250" height="61.063" fill="#888"/>
    </clipPath>
  </defs>
  <g id="Group_1" data-name="Group 1" transform="translate(0 0)">
    <g id="Group_14" data-name="Group 14" transform="translate(0 0)" clip-path="url(#clip-path)">
      <path id="Path_14" data-name="Path 14" d="M60.433,37.384c-7.043,0-12.112-4.723-12.112-12.327S53.3,12.731,60.433,12.731c7,0,11.94,4.64,11.94,11.941a18.855,18.855,0,0,1-.129,2.147H55.623c.258,3.134,2.19,4.6,4.552,4.6A3.9,3.9,0,0,0,64,29.094h7.816c-1.159,4.681-5.411,8.29-11.38,8.29M55.664,22.739h9.192c0-2.62-2.061-4.123-4.511-4.123a4.543,4.543,0,0,0-4.681,4.123" transform="translate(23.376 6.159)" fill="#888"/>
      <path id="Path_15" data-name="Path 15" d="M76.721,15.168a8.8,8.8,0,0,1,7.386,3.65V7.694H91.45V39.476H84.107V36.041a8.291,8.291,0,0,1-7.386,3.779c-5.885,0-10.566-4.81-10.566-12.369s4.681-12.284,10.566-12.284m2.147,6.4c-2.749,0-5.241,2.062-5.241,5.885s2.491,5.969,5.241,5.969c2.791,0,5.239-2.105,5.239-5.928s-2.448-5.926-5.239-5.926" transform="translate(32.003 3.722)" fill="#888"/>
      <path id="Path_16" data-name="Path 16" d="M102.752,24c0-3.264-1.8-5.069-4.6-5.069s-4.6,1.8-4.6,5.069V37.013H86.217V13.047h7.345v3.178a8.784,8.784,0,0,1,7.259-3.436c5.54,0,9.233,3.779,9.233,10.222v14h-7.3Z" transform="translate(41.708 6.187)" fill="#888"/>
      <path id="Path_17" data-name="Path 17" d="M104.687,9.922a4.377,4.377,0,0,1,8.72,0,4.381,4.381,0,0,1-8.72,0m.688,6.444h7.343V40.33h-7.343Z" transform="translate(50.643 2.868)" fill="#888"/>
      <path id="Path_18" data-name="Path 18" d="M116,20.966h-2.922v-6.1H116V9.025h7.345v5.843h4.809v6.1h-4.809v9.619c0,1.417.6,2.019,2.233,2.019h2.62v6.227h-3.738c-4.981,0-8.46-2.1-8.46-8.331Z" transform="translate(54.705 4.366)" fill="#888"/>
      <path id="Path_19" data-name="Path 19" d="M126.14,9.922a4.377,4.377,0,0,1,8.72,0,4.381,4.381,0,0,1-8.72,0m.688,6.444h7.343V40.33h-7.343Z" transform="translate(61.021 2.868)" fill="#888"/>
      <path id="Path_20" data-name="Path 20" d="M145.949,37.384c-7.043,0-12.369-4.723-12.369-12.326s5.454-12.327,12.456-12.327c7.043,0,12.453,4.726,12.453,12.327s-5.5,12.326-12.541,12.326m0-6.356c2.622,0,5.068-1.933,5.068-5.969,0-4.08-2.405-5.971-4.981-5.971-2.663,0-4.984,1.89-4.984,5.971,0,4.036,2.235,5.969,4.9,5.969" transform="translate(64.62 6.159)" fill="#888"/>
      <path id="Path_21" data-name="Path 21" d="M168.961,24c0-3.264-1.8-5.069-4.6-5.069s-4.6,1.8-4.6,5.069V37.013h-7.345V13.047h7.345v3.178a8.784,8.784,0,0,1,7.259-3.436c5.542,0,9.235,3.779,9.235,10.222v14h-7.3Z" transform="translate(73.737 6.187)" fill="#888"/>
      <path id="Path_22" data-name="Path 22" d="M23.635,43.146V29.3H8.73L31.246,6.782V19.188H47.593L35.245,31.536H61.037c.01-.334.025-.668.025-1a30.537,30.537,0,1,0-2.73,12.615Z" transform="translate(0 0)" fill="#fbb04c"/>
    </g>
  </g>
</svg>
