<?xml version="1.0" encoding="UTF-8" standalone="no"?>
<svg width="80" height="24" viewBox="0 0 80 24" fill="none" xmlns="http://www.w3.org/2000/svg">
  <!-- Blue background rectangle -->
  <rect width="24" height="24" rx="4" fill="#1E5AAA"/>
  
  <!-- Letter "e" stylized -->
  <path d="M6.6 12C6.6 8.7 9.3 6 12.6 6C15.9 6 18 8.7 18 12" stroke="white" stroke-width="2.4" stroke-linecap="round"/>
  <path d="M6.6 12H18" stroke="white" stroke-width="2.4" stroke-linecap="round"/>
  <path d="M6.6 12C6.6 15.3 9.3 18 12.6 18C15.9 18 18 15.3 18 12" stroke="#25C7D9" stroke-width="2.4" stroke-linecap="round"/>
  
  <!-- Text "ednition" -->
  <path d="M30 9H32.4V16.2H30V9ZM33 9H39C39.66 9 40.2 9.54 40.2 10.2V16.2H37.8V11.4H35.4V16.2H33V9ZM41.4 9H47.4C48.06 9 48.6 9.54 48.6 10.2V15C48.6 15.66 48.06 16.2 47.4 16.2H41.4V9ZM43.8 11.4V13.8H46.2V11.4H43.8ZM49.8 9H56.4C57.06 9 57.6 9.54 57.6 10.2V15C57.6 15.66 57.06 16.2 56.4 16.2H49.8V9ZM52.2 11.4V13.8H54.6V11.4H52.2ZM58.2 9H60.6V16.2H58.2V9ZM61.8 9H67.8C68.46 9 69 9.54 69 10.2V16.2H66.6V11.4H64.2V16.2H61.8V9ZM70.2 9H76.2C76.86 9 77.4 9.54 77.4 10.2V15C77.4 15.66 76.86 16.2 76.2 16.2H70.2V9ZM72.6 11.4V13.8H75V11.4H72.6Z" fill="white"/>
</svg> 